# xmcd CD database file
#
# Track frame offsets:
#	150
#	11505
#	23435
#	35587
#	48267
#	59587
#	69817
#	85207
#	97712
#	110617
#	123212
#	136137
#	146622
#	164845
#	182860
#	194600
#	207687
#	221575
#	232395
#	243685
#	253740
#	266917
#
# Disc length: 3734 seconds
#
# Revision: 0
# Processed by: cddbd v1.5.1PL2 Copyright (c) Steve Scherf et al.
# Submitted via: CDex 1.51
#
DISCID=4e0e9416
DTITLE=John Lee Hooker - Boon Boon 〜　Original Vee Jay Recording
DYEAR=1988
DGENRE=Blues
TTITLE0=Boon Boon
TTITLE1=Boogie Chillun
TTITLE2=Little Wheel
TTITLE3=Crawlin' Kingsnake
TTITLE4=No Shoes
TTITLE5=Dimples
TTITLE6=Tupelo
TTITLE7=Drug Store Woman
TTITLE8=Hobo Blues
TTITLE9=I'm In The Mood
TTITLE10=Whiskey And Wimmen
TTITLE11=Dusty Road
TTITLE12=Sally Mae
TTITLE13=Wednesday Evening Blues
TTITLE14=I Love You Honey
TTITLE15=Unfriendly Woman
TTITLE16=Time Is Marching
TTITLE17=She's Mine
TTITLE18=Send Me Your Pillow
TTITLE19=I'm Leaving
TTITLE20=Birmingham Blues
TTITLE21=Don't Look Back
EXTD=YEAR: 1988
EXTT0=
EXTT1=
EXTT2=
EXTT3=
EXTT4=
EXTT5=
EXTT6=
EXTT7=
EXTT8=
EXTT9=
EXTT10=
EXTT11=
EXTT12=
EXTT13=
EXTT14=
EXTT15=
EXTT16=
EXTT17=
EXTT18=
EXTT19=
EXTT20=
EXTT21=
PLAYORDER=
